<svg xmlns="http://www.w3.org/2000/svg" xmlns:xlink="http://www.w3.org/1999/xlink" viewBox="0 0 250.51 248.36"><defs><style>.cls-1{fill:url(#Безымянный_градиент_2);}.cls-2{fill-opacity:0.4;fill:url(#Безымянный_градиент_2-2);}</style><linearGradient id="Безымянный_градиент_2" x1="-70.62" y1="152" x2="38.67" y2="334.75" gradientTransform="matrix(1, 0, 0, -1, 0, 533.51)" gradientUnits="userSpaceOnUse"><stop offset="0" stop-color="#355cff"/><stop offset="1" stop-color="#a116e7"/></linearGradient><linearGradient id="Безымянный_градиент_2-2" x1="-101.77" y1="-34.14" x2="186.11" y2="444.7" xlink:href="#Безымянный_градиент_2"/></defs><title>replРесурс 2</title><g id="Слой_2" data-name="Слой 2"><g id="Слой_1-2" data-name="Слой 1"><path class="cls-1" d="M5.76,165a116.93,116.93,0,0,1,37.87,34.23,117,117,0,0,1,19.69,47.1l-11.52,2A105.17,105.17,0,0,0,34.08,206,105.33,105.33,0,0,0,0,175.17Z"/><path class="cls-2" d="M100,0a307,307,0,0,1,99.15,90.05,307,307,0,0,1,51.37,123.7L69.08,245.59a122.68,122.68,0,0,0-20.55-49.48,122.7,122.7,0,0,0-39.66-36Z"/></g></g></svg>